<?xml version="1.0" standalone="no"?>
<!DOCTYPE svg PUBLIC "-//W3C//DTD SVG 20010904//EN"
 "http://www.w3.org/TR/2001/REC-SVG-20010904/DTD/svg10.dtd">
<svg version="1.0" xmlns="http://www.w3.org/2000/svg"
 width="500.000000pt" height="500.000000pt" viewBox="0 0 500.000000 500.000000"
 preserveAspectRatio="xMidYMid meet">
<metadata>
Created by potrace 1.14, written by Peter Selinger 2001-2017
</metadata>
<g transform="translate(0.000000,500.000000) scale(0.100000,-0.100000)"
fill="#000000" stroke="none">
<path d="M2270 4715 c-247 -35 -391 -81 -645 -207 -327 -164 -560 -349 -721
-575 -260 -364 -415 -768 -468 -1222 -26 -220 -29 -324 -21 -769 l7 -434 30
-33 c36 -42 84 -60 123 -45 15 6 55 35 89 66 97 89 236 142 342 131 36 -4 80
-20 136 -50 251 -133 273 -143 310 -130 60 21 85 25 68 14 -15 -11 72 -8 175
5 21 3 37 2 34 -1 -7 -7 -162 -32 -241 -39 -63 -6 -128 -33 -128 -53 0 -17 22
-17 63 0 37 16 115 32 105 22 -3 -4 -35 -16 -70 -28 -73 -26 -82 -46 -25 -62
21 -6 36 -13 33 -16 -3 -3 -6 -19 -8 -36 -1 -17 -10 -36 -21 -42 -17 -11 -18
-10 -12 11 5 18 4 19 -4 8 -6 -8 -8 -25 -4 -37 4 -17 1 -23 -11 -23 -11 0 -16
9 -16 33 l0 32 -18 -23 -18 -23 -29 31 c-23 24 -35 29 -56 25 -23 -5 -30 -1
-45 24 -14 23 -23 29 -37 25 -14 -4 -26 2 -42 22 -13 16 -26 26 -30 22 -12
-12 29 -58 58 -65 33 -7 42 -19 28 -37 -6 -7 -8 -16 -4 -19 11 -12 23 -8 23 7
0 10 9 9 40 -6 35 -18 38 -22 25 -32 -17 -12 -11 -51 6 -40 5 3 9 1 9 -5 0 -6
6 -9 13 -7 6 1 9 1 5 -1 -4 -2 -4 -12 -1 -21 4 -14 3 -15 -6 -2 -8 12 -11 12
-17 -3 -3 -9 -1 -24 6 -33 10 -12 11 -17 1 -27 -10 -9 -11 -8 -6 6 4 10 2 17
-4 17 -6 0 -11 10 -12 23 0 20 -1 20 -8 3 -7 -19 -8 -19 -29 2 -12 12 -33 22
-47 22 -18 0 -23 4 -19 15 4 10 0 15 -13 15 -12 0 -23 -11 -31 -33 -19 -54
-14 -65 15 -32 l26 30 -7 -38 c-5 -29 -4 -39 9 -43 13 -5 13 -9 3 -22 -11 -13
-11 -14 2 -7 12 6 12 5 3 -5 -6 -7 -9 -18 -7 -25 3 -7 -6 -15 -22 -18 -22 -4
-35 4 -75 45 -35 36 -49 59 -49 78 0 33 21 53 52 49 33 -5 48 8 48 41 0 38
-18 48 -29 17 -8 -21 -38 -43 -46 -35 -2 2 -4 19 -6 38 -4 49 7 63 45 56 l31
-5 -28 15 c-26 14 -31 14 -52 0 -13 -9 -31 -13 -40 -10 -8 4 -22 1 -30 -6 -20
-16 -20 -44 0 -37 8 4 17 2 21 -4 11 -19 -35 -109 -57 -109 -4 0 -5 26 -2 57
l5 57 -32 -27 c-17 -15 -43 -27 -56 -27 -27 0 -91 30 -136 63 -15 11 -31 17
-35 13 -5 -5 3 -16 17 -25 13 -9 32 -24 42 -33 16 -16 15 -19 -15 -51 -18 -20
-39 -36 -47 -37 -25 -4 -44 0 -37 7 4 3 -1 11 -9 18 -12 8 -16 26 -16 59 1 49
-22 86 -53 86 -24 0 -65 22 -65 36 0 7 10 15 23 17 12 2 5 3 -16 0 -87 -8
-156 -66 -164 -136 -10 -88 49 -155 125 -142 40 7 62 22 105 73 18 23 29 29
32 20 43 -118 45 -176 5 -237 -41 -64 -136 -154 -194 -185 l-50 -25 -21 37
c-53 97 -175 86 -205 -19 -13 -44 3 -102 37 -128 78 -62 251 21 376 181 29 37
60 77 70 90 10 13 0 -13 -23 -56 -49 -95 -56 -139 -36 -231 l15 -70 -32 -67
c-25 -54 -36 -68 -54 -68 -20 0 -43 -25 -43 -47 0 -4 898 -8 1995 -8 1878 0
1995 1 1995 17 0 23 -30 38 -74 38 -25 0 -36 5 -36 15 0 24 -22 64 -39 70 -23
9 -43 -24 -35 -59 l6 -29 -63 7 c-35 4 -68 12 -73 17 -16 15 -33 10 -39 -11
-5 -21 -50 -29 -62 -10 -14 22 -43 30 -57 16 -9 -9 -42 -15 -89 -16 -117 -4
-139 -2 -139 15 0 9 -9 15 -25 15 -16 0 -25 6 -25 16 0 9 -9 18 -20 21 -11 3
-20 12 -20 21 0 36 -60 54 -91 26 -16 -15 -19 -14 -33 13 l-15 28 -1 -27 c0
-16 -3 -28 -8 -28 -12 0 -72 58 -72 69 0 19 -40 34 -56 20 -12 -10 -19 -8 -37
9 -21 20 -24 20 -56 4 -19 -9 -43 -30 -53 -48 -10 -18 -33 -37 -49 -43 -17 -6
-44 -25 -61 -43 -23 -25 -28 -27 -19 -10 21 39 5 36 -38 -8 -22 -23 -45 -39
-51 -35 -6 4 -20 -1 -30 -10 -18 -16 -22 -16 -42 -3 -20 13 -29 13 -68 2 -61
-19 -65 -18 -76 13 l-9 28 -23 -23 c-22 -22 -24 -22 -36 -6 -12 16 -15 16 -44
-1 -29 -18 -31 -18 -58 0 -26 17 -28 17 -41 -1 -13 -17 -15 -17 -63 3 -51 22
-51 22 -93 3 -47 -22 -89 -25 -118 -9 -15 7 -24 7 -35 -1 -16 -14 -63 -9 -113
11 -27 11 -35 11 -38 2 -3 -7 -20 -13 -38 -13 -24 0 -34 5 -38 20 -7 27 -35
25 -48 -4 -8 -16 -22 -26 -48 -30 -60 -10 -102 -7 -117 9 -9 8 -24 15 -33 15
-10 0 -24 7 -31 15 -17 21 -42 19 -73 -5 -27 -22 -60 -25 -121 -11 -34 8 -39
7 -43 -10 -6 -22 -33 -26 -33 -4 0 19 -14 19 -30 0 -8 -9 -22 -12 -43 -8 -53
10 -64 20 -71 65 -8 50 -18 58 -61 51 -39 -6 -105 25 -128 60 -9 14 -21 46
-28 71 -14 57 -7 70 102 180 l79 79 55 -7 c30 -3 81 -9 113 -13 62 -7 72 -14
72 -56 0 -44 34 -100 106 -174 37 -37 80 -88 96 -112 22 -36 28 -40 28 -23 0
25 18 30 26 7 10 -25 88 -48 150 -43 63 5 94 30 94 73 0 35 -47 68 -85 61 -26
-5 -34 -2 -51 21 -17 23 -20 45 -22 133 -1 101 0 106 27 140 32 40 65 100 58
106 -6 7 -87 -86 -100 -113 -6 -13 -14 -23 -19 -23 -28 0 94 161 173 229 20
17 44 45 52 63 l17 33 0 -45 c0 -37 -7 -54 -39 -97 -32 -41 -81 -132 -81 -149
0 -10 81 38 128 75 56 45 102 121 102 170 0 32 -26 84 -74 144 -40 50 -54 47
-24 -5 43 -75 58 -129 49 -170 -13 -57 -43 -101 -87 -125 -61 -35 -63 -27 -7
22 33 29 57 61 69 91 17 44 16 46 -4 87 -58 118 -88 231 -83 318 2 39 68 106
111 114 35 5 35 5 -7 -13 -68 -28 -76 -41 -80 -129 -4 -59 -1 -83 10 -98 14
-18 14 -15 5 31 -14 70 3 129 45 154 37 23 44 20 24 -12 -8 -12 -18 -46 -21
-75 -6 -48 -3 -58 44 -148 30 -59 44 -95 35 -91 -19 7 -19 -8 0 -24 8 -7 20
-29 26 -50 10 -33 9 -44 -10 -84 -32 -65 -125 -148 -199 -175 -63 -24 -97 -54
-108 -96 -9 -38 4 -30 21 12 18 45 66 68 158 76 56 5 58 5 43 -12 -27 -30 -19
-43 12 -21 l29 21 36 -21 c19 -12 40 -33 45 -49 8 -24 5 -34 -24 -74 -19 -26
-39 -47 -46 -47 -10 0 23 44 47 62 6 5 6 8 -1 8 -6 0 -17 14 -24 30 -10 23
-19 30 -41 30 -15 0 -31 -5 -34 -11 -4 -6 -13 -8 -20 -5 -24 9 -29 -50 -8 -92
14 -30 23 -37 46 -37 23 1 27 -3 27 -27 0 -18 8 -33 23 -43 38 -24 87 -4 147
61 67 74 83 105 74 149 -13 72 -105 158 -150 141 -10 -4 -14 -2 -11 6 2 7 12
13 23 14 40 2 45 5 64 37 15 23 20 50 20 99 l0 67 37 -15 c27 -12 42 -13 60
-5 34 16 63 69 63 119 0 31 4 42 15 42 8 0 15 5 15 11 0 11 -31 5 -60 -12 -12
-6 -12 -8 -1 -9 8 0 11 -7 8 -20 -3 -11 -1 -18 4 -14 5 3 9 -2 9 -11 0 -9 -4
-13 -10 -10 -6 4 -7 -1 -3 -11 5 -13 3 -16 -10 -11 -12 4 -15 0 -14 -21 2 -25
-1 -27 -37 -26 -45 2 -63 19 -102 95 -21 42 -49 67 -62 55 -2 -3 1 -25 7 -50
13 -53 14 -93 3 -100 -15 -9 -121 160 -128 203 -10 63 4 148 30 178 19 22 32
26 95 30 75 4 101 -5 101 -34 0 -13 -3 -13 -15 -3 -12 10 -15 10 -15 0 0 -10
-3 -10 -15 0 -9 7 -26 9 -46 5 -20 -5 -34 -3 -39 4 -5 9 -11 7 -21 -5 -9 -12
-10 -15 -1 -10 15 9 15 1 1 -26 -10 -18 -8 -18 21 4 31 23 32 23 46 3 14 -18
13 -20 -5 -23 -13 -2 -21 -11 -21 -23 0 -10 -4 -19 -9 -19 -19 0 -6 -42 19
-59 24 -17 150 -39 150 -26 0 4 -5 15 -11 26 -10 19 -8 20 31 14 l42 -6 -26
34 c-14 19 -26 37 -26 40 0 9 32 -4 54 -22 18 -15 18 -15 7 6 -6 12 -20 28
-32 36 -14 10 -17 17 -9 22 8 5 5 12 -9 22 -17 11 -19 18 -11 34 10 18 9 19
-17 13 -15 -4 -30 -8 -32 -10 -2 -2 -12 14 -22 35 -21 48 -48 66 -131 92 -127
38 -256 22 -333 -43 -37 -31 -149 -77 -292 -118 -108 -32 -134 -34 -253 -16
-25 4 -127 58 -180 96 -59 42 -122 62 -214 69 -59 4 -90 10 -89 17 2 8 -8 9
-30 4 -64 -15 -123 -44 -192 -93 -92 -67 -116 -75 -148 -54 -33 21 -36 50 -37
434 -1 354 5 414 51 504 51 102 169 237 259 298 140 94 293 122 449 82 107
-27 149 -26 291 3 141 29 219 58 260 96 l30 28 21 -29 c23 -32 67 -59 98 -59
28 0 114 -71 160 -132 69 -93 124 -145 203 -193 188 -113 289 -311 248 -487
-5 -24 -14 -61 -19 -83 -19 -84 -57 -195 -64 -189 -4 4 -7 -6 -7 -23 0 -17 -3
-50 -6 -75 l-6 -45 50 -21 c76 -33 169 -54 203 -47 43 10 56 39 62 141 7 108
21 190 55 302 41 137 174 339 291 440 50 44 61 49 71 37 18 -22 58 -18 78 7 9
11 25 29 35 40 11 12 13 18 5 18 -9 0 -14 25 -16 84 l-2 84 37 -19 c88 -43
256 -46 385 -6 79 25 97 27 212 23 160 -5 248 -33 373 -116 97 -64 129 -96
192 -184 64 -93 70 -124 72 -399 2 -133 4 -313 7 -399 l4 -158 39 0 39 0 3
338 c5 777 -10 921 -140 1312 -81 245 -209 497 -355 699 -29 40 -74 103 -100
139 -132 185 -464 454 -714 580 -141 71 -342 125 -569 151 -120 15 -397 12
-515 -4z m657 -53 c266 -52 494 -159 727 -341 260 -203 360 -319 591 -681 64
-100 190 -367 198 -420 2 -8 6 -20 9 -25 4 -6 3 -17 -1 -24 -6 -9 -12 -4 -19
18 -12 34 -17 37 -28 19 -5 -7 -3 -8 6 -3 9 5 11 4 6 -4 -10 -15 -29 -3 -22
15 3 8 1 14 -4 14 -5 0 -23 26 -41 58 -82 144 -121 193 -191 239 -37 25 -68
49 -68 54 0 4 19 6 42 3 l43 -4 -35 21 c-19 12 -38 26 -42 32 -8 14 -1 27 15
27 8 0 8 -3 -2 -9 -9 -6 -10 -11 -2 -15 6 -4 16 -4 21 -1 6 4 17 1 25 -5 8 -7
15 -10 15 -7 0 8 -119 87 -131 87 -5 0 -9 5 -9 10 0 6 -28 10 -64 10 -73 0
-95 20 -46 40 46 19 56 37 17 33 -46 -6 -14 14 37 23 27 4 35 9 25 14 -8 4
-41 4 -73 -1 -73 -12 -103 -7 -61 10 17 6 39 16 50 21 18 9 17 10 -5 5 -14 -3
-52 -7 -85 -10 l-60 -5 40 14 c129 45 144 67 30 46 -36 -7 -78 -9 -97 -4 l-33
7 50 13 50 12 -50 -3 c-27 -1 -40 0 -28 2 13 2 20 10 17 17 -4 10 3 12 23 10
26 -4 26 -4 6 5 -33 15 -28 20 15 16 20 -2 10 1 -23 8 -37 8 -55 16 -47 20 7
5 21 6 31 2 11 -3 22 -1 25 4 7 10 0 13 -86 36 -56 14 -251 108 -243 117 2 2
-12 2 -33 0 -56 -5 -19 15 43 24 l50 7 -35 13 -35 12 60 2 c33 1 52 4 43 7
-25 6 -22 21 5 27 29 6 -75 -1 -133 -9 l-45 -7 30 26 c28 23 28 25 9 26 -12 0
-27 -7 -34 -15 -15 -18 -71 -20 -89 -2 -11 10 -13 10 -7 0 8 -14 -20 -18 -48
-7 -23 9 -20 24 5 24 11 0 30 5 42 12 12 6 42 17 67 24 l45 13 -55 -6 c-30 -3
-64 -9 -76 -14 -15 -5 -21 -3 -21 6 0 8 14 17 31 22 17 4 33 8 36 8 3 1 24 5
48 10 23 4 42 11 42 15 0 11 -27 20 -58 20 -22 0 -24 -2 -12 -11 12 -8 12 -9
-5 -7 -11 1 -37 -4 -57 -11 -21 -7 -45 -12 -55 -11 -38 4 -64 0 -58 -10 4 -6
-9 -10 -32 -10 l-38 1 30 14 30 13 -30 2 c-28 1 -27 2 15 17 25 8 53 15 62 15
9 -1 22 6 29 14 11 13 8 14 -17 8 -16 -4 -39 -11 -52 -16 -14 -5 -30 -4 -40 2
-15 8 -14 9 5 10 12 0 29 10 37 22 20 28 14 34 -16 15 -12 -8 -39 -18 -58 -22
l-35 -8 33 28 c18 15 30 30 27 33 -2 3 -13 -3 -24 -12 -25 -23 -145 -40 -185
-26 -18 6 -33 6 -40 1 -8 -7 -12 -4 -12 9 0 10 3 18 6 18 13 -3 39 15 34 23
-11 18 -45 9 -53 -15 -5 -13 -19 -26 -30 -29 -17 -4 -21 -1 -21 22 0 14 -7 36
-15 47 -8 12 -11 25 -7 29 4 5 1 5 -5 1 -8 -4 -13 -27 -13 -53 0 -45 0 -45
-31 -41 -17 3 -57 -1 -88 -8 -31 -8 -90 -14 -131 -14 -41 0 -102 -4 -134 -10
-33 -5 -62 -8 -64 -5 -9 9 45 23 161 44 133 23 186 44 184 71 -1 16 -3 16 -28
-3 -21 -15 -37 -19 -68 -14 -45 6 -196 -22 -253 -46 -21 -9 -38 -14 -38 -11 0
2 -14 -3 -31 -11 -30 -16 -30 -16 -19 5 6 12 28 40 48 63 29 33 32 38 12 26
-14 -9 -34 -30 -46 -46 -11 -17 -39 -53 -63 -79 -33 -39 -40 -43 -32 -22 18
49 49 105 78 138 23 28 24 31 6 22 -22 -12 -83 -90 -118 -150 -12 -21 -29 -37
-42 -39 -27 -3 -29 8 -8 45 27 51 45 92 40 92 -3 0 -19 -24 -35 -54 -37 -65
-48 -75 -84 -78 -15 -1 -33 -9 -39 -17 -10 -12 -8 -13 12 -8 16 4 21 3 14 -4
-6 -6 -22 -7 -36 -4 -25 7 -25 7 -6 26 11 11 18 26 16 32 -2 7 12 32 31 57 39
49 24 39 -65 -45 -29 -27 -72 -66 -94 -85 -62 -52 -108 -76 -94 -47 4 6 0 4
-8 -5 -8 -10 -20 -18 -27 -18 -6 0 -25 -9 -42 -21 -44 -31 -45 -16 -1 17 21
15 40 31 43 34 3 4 14 10 24 13 10 4 16 10 13 14 -9 8 -196 -119 -232 -157
-34 -37 -103 -90 -117 -90 -10 0 30 39 92 89 23 18 39 35 37 38 -8 7 -108 -57
-162 -104 -27 -24 -56 -41 -63 -38 -7 3 -10 0 -7 -5 3 -6 1 -10 -5 -10 -20 0
-169 -127 -208 -177 -34 -44 -51 -69 -121 -178 -14 -22 -28 -42 -31 -45 -34
-32 -60 -77 -60 -101 0 -19 -14 -49 -39 -82 -21 -29 -49 -77 -62 -107 -37 -89
-73 -154 -87 -158 -11 -3 -12 0 -4 15 6 11 13 30 15 44 5 27 14 56 28 81 5 10
9 25 9 33 0 8 4 15 8 15 4 0 8 8 9 18 3 27 58 156 104 240 91 167 191 305 314
430 131 135 231 210 426 322 82 46 286 143 339 160 14 5 54 19 90 33 84 31
232 66 329 77 134 15 522 4 638 -18z m143 -237 c0 -2 -15 -8 -32 -13 -18 -6
-42 -13 -53 -18 -11 -4 -17 -4 -13 0 12 14 98 42 98 31z m-1203 -71 c-3 -3
-12 -4 -19 -1 -8 3 -5 6 6 6 11 1 17 -2 13 -5z m1343 -14 c-8 -5 -11 -10 -5
-10 5 0 4 -5 -2 -11 -14 -14 -76 -2 -67 13 3 5 14 8 24 5 10 -2 24 -1 31 4 8
5 19 9 24 9 6 0 3 -5 -5 -10z m-1290 -4 c0 -2 -12 -12 -27 -22 -20 -13 -25
-13 -16 -2 7 8 11 17 8 19 -2 3 5 5 15 6 11 1 20 0 20 -1z m-115 -36 c-3 -5
-11 -10 -16 -10 -6 0 -7 5 -4 10 3 6 11 10 16 10 6 0 7 -4 4 -10z m-6 -24
c-15 -13 -49 -25 -49 -17 0 5 8 12 18 14 24 6 36 8 31 3z m-499 -220 c0 -2 -7
-7 -16 -10 -8 -3 -12 -2 -9 4 6 10 25 14 25 6z m-30 -41 c-7 -8 -17 -12 -23
-8 -6 4 -3 9 9 14 27 11 28 11 14 -6z m-85 -24 c-8 -17 -21 -33 -27 -37 -8 -5
-7 1 3 16 8 14 19 31 23 38 15 25 16 11 1 -17z m1448 -13 c-5 -27 -3 -31 8
-20 22 20 28 14 24 -28 -2 -29 -10 -46 -29 -61 -14 -11 -26 -29 -26 -39 0 -11
-15 -25 -40 -38 -22 -10 -37 -22 -33 -26 9 -8 -27 -46 -44 -46 -7 0 -13 -11
-13 -24 0 -15 -13 -36 -35 -55 -40 -34 -44 -46 -15 -38 25 6 26 -1 3 -19 -17
-13 -17 -13 0 -14 11 0 17 -8 17 -23 0 -21 4 -23 30 -19 l31 4 -30 -45 c-17
-24 -42 -52 -55 -60 -27 -18 -24 -20 -81 67 -37 54 -78 163 -71 183 10 25 21
6 46 -85 28 -102 38 -101 14 2 -10 42 -15 79 -11 83 11 10 18 -1 32 -54 l13
-48 -1 49 -2 49 62 41 c34 23 62 46 63 53 0 7 14 23 31 35 46 34 88 104 95
159 4 27 10 49 15 49 5 0 6 -15 2 -32z m-1023 -53 c22 -27 29 -46 25 -62 -4
-18 1 -25 32 -38 101 -44 128 -66 173 -135 41 -64 90 -85 191 -84 72 1 76 0
91 -26 10 -18 34 -33 76 -48 103 -38 132 -97 115 -237 -12 -94 -17 -106 -36
-83 -22 28 -128 108 -142 108 -12 0 -12 5 -3 24 6 15 7 32 2 43 -4 10 -8 25
-8 33 -1 23 -77 71 -103 65 -16 -4 -23 -1 -23 9 0 18 -58 31 -89 21 -26 -8
-81 47 -81 81 0 12 -9 32 -20 46 -13 17 -16 28 -9 35 27 27 -84 87 -176 96
-32 3 -40 8 -40 24 -1 12 -7 28 -15 38 -11 14 -12 20 -1 37 9 15 10 23 2 31
-12 12 -15 50 -4 60 3 4 7 6 9 5 1 -2 16 -21 34 -43z m-470 21 c0 -7 -52 -96
-56 -96 -3 0 -2 5 1 10 15 25 -5 7 -22 -19 -20 -31 -83 -88 -83 -74 0 4 12 21
28 37 15 16 39 48 54 70 16 23 28 37 28 31 1 -5 8 2 16 18 12 22 34 37 34 23z
m2360 -224 c0 -5 -11 -19 -25 -32 -14 -13 -30 -41 -36 -62 -5 -22 -25 -52 -45
-71 -53 -48 -59 -62 -34 -96 23 -33 25 -50 8 -85 -12 -28 -41 -42 -60 -29 -7
4 -20 6 -30 5 -29 -5 -30 16 -1 33 15 9 19 13 8 9 -11 -4 -49 -11 -85 -14 -36
-4 -75 -11 -87 -15 -20 -7 -21 -9 -7 -29 26 -40 -5 -124 -80 -219 -26 -33 -31
-49 -34 -108 -5 -86 9 -124 51 -139 l32 -11 -59 -32 c-32 -17 -92 -63 -134
-101 l-74 -70 4 99 c5 118 27 174 97 244 47 48 74 95 97 172 9 31 21 48 34 52
11 3 20 11 20 17 0 10 -3 10 -15 0 -17 -14 -19 -7 -6 18 12 24 23 88 13 77 -5
-6 -14 -29 -21 -53 -16 -58 -30 -45 -17 18 6 31 15 50 24 50 7 0 56 20 109 45
52 25 101 45 109 45 10 0 13 7 8 25 -5 21 -1 28 27 42 49 27 79 59 79 85 l-1
23 -14 -25 c-13 -22 -14 -23 -14 -5 0 27 35 69 53 62 7 -3 30 13 52 39 38 42
54 53 54 36z m-1740 -12 c0 -5 -4 -10 -9 -10 -6 0 -13 5 -16 10 -3 6 1 10 9
10 9 0 16 -4 16 -10z m-830 -13 c0 -2 -10 -12 -22 -23 l-23 -19 19 23 c18 21
26 27 26 19z m1342 -91 c29 -76 17 -89 -20 -22 -36 67 -39 79 -16 74 9 -2 25
-25 36 -52z m-37 -17 c26 -51 19 -64 -19 -31 -20 16 -20 16 -7 0 20 -27 -8
-24 -50 5 -45 30 -45 58 1 73 19 7 38 10 43 7 4 -2 19 -27 32 -54z m-1375 12
c0 -5 -9 -19 -21 -32 l-20 -24 17 33 c19 33 24 38 24 23z m996 -76 c7 -29 1
-41 -15 -30 -14 8 -14 55 -1 55 5 0 12 -11 16 -25z m2328 -76 c-3 -5 -1 -9 4
-9 20 0 121 -194 108 -208 -3 -3 -8 -3 -10 -1 -12 13 -116 191 -115 197 1 4 1
14 0 22 -1 13 -2 13 -11 0 -5 -8 -10 -10 -10 -4 0 6 3 13 6 17 9 9 35 -4 28
-14z m-1610 -122 c16 -24 16 -27 0 -59 -11 -21 -17 -54 -16 -95 1 -35 -3 -63
-7 -63 -5 0 -30 23 -55 51 -74 82 -71 141 11 207 l38 30 6 -22 c4 -13 14 -34
23 -49z m416 -73 c-28 -98 -52 -146 -86 -173 l-27 -22 -29 28 c-26 25 -58 104
-58 144 0 12 15 23 49 34 28 9 61 25 75 36 40 31 80 49 89 40 5 -5 -1 -44 -13
-87z m-269 -6 c27 0 40 -5 43 -17 2 -9 17 -58 32 -110 26 -88 27 -95 12 -120
-9 -14 -27 -48 -39 -74 l-22 -48 -64 63 c-87 85 -107 125 -108 213 0 39 6 84
14 102 l13 32 40 -20 c22 -11 57 -21 79 -21z m-512 -78 c19 -37 33 -81 40
-134 6 -44 10 -80 8 -82 -1 -2 -18 12 -37 30 -59 54 -129 97 -168 102 l-37 5
36 -14 c81 -31 141 -94 208 -217 38 -72 105 -239 98 -246 -2 -2 -41 20 -87 49
-63 39 -91 64 -116 103 -47 73 -127 142 -181 156 -26 6 -60 25 -81 45 l-36 35
70 29 c56 23 77 39 107 78 42 55 67 109 67 146 l0 25 40 -28 c23 -16 51 -50
69 -82z m263 -120 c35 -47 76 -105 90 -130 44 -76 155 -460 134 -460 -3 0 -13
15 -22 33 -9 17 -70 107 -136 200 -133 186 -171 263 -171 347 0 59 18 119 32
104 5 -5 38 -47 73 -94z m680 -247 c8 -66 -10 -173 -37 -220 -15 -24 -49 -62
-78 -84 -87 -69 -141 -122 -177 -173 l-35 -48 -3 83 c-6 162 23 218 183 359
63 55 117 105 120 110 12 20 23 9 27 -27z m121 -110 c-7 -100 -15 -134 -36
-147 -12 -8 -20 -7 -31 4 -12 12 -13 24 -5 60 6 25 9 71 6 103 l-5 57 38 0 38
0 -5 -77z m-1123 -1013 c12 -8 9 -10 -13 -10 -47 0 -104 -37 -149 -97 l-43
-57 0 -160 c0 -97 -5 -171 -12 -186 -6 -14 -31 -56 -56 -93 -25 -37 -48 -84
-52 -104 -4 -24 -9 -32 -14 -24 -5 7 -12 12 -17 12 -5 0 -9 21 -9 47 0 48 12
92 26 92 4 0 10 8 12 18 4 14 5 14 6 1 0 -9 -6 -22 -14 -29 -20 -17 -19 -29 2
-26 11 2 20 15 24 35 4 18 14 37 22 44 37 28 46 105 25 197 -8 37 -9 53 -1 58
14 9 48 91 40 98 -2 3 -18 -19 -34 -48 -26 -45 -31 -69 -38 -153 -8 -111 -9
-114 -70 -194 -56 -74 -116 -117 -142 -102 -17 10 -17 10 2 12 11 1 26 0 34
-1 11 -1 10 2 -3 15 -19 20 -20 27 -4 43 9 9 8 12 -6 12 -14 0 -17 -6 -13 -26
4 -25 3 -26 -33 -20 l-37 6 8 -43 c4 -24 8 -47 9 -52 2 -6 2 -19 1 -30 -1 -18
-3 -17 -14 5 -14 28 -35 111 -38 150 -1 14 4 39 10 55 7 17 14 38 16 47 7 32
62 103 117 150 55 47 135 177 99 163 -41 -18 -53 -15 -22 5 18 11 31 23 28 26
-3 3 -35 -4 -72 -15 -37 -12 -79 -21 -94 -20 -15 0 -1 7 34 15 32 8 77 25 100
38 22 13 54 27 71 30 18 4 54 21 80 38 l49 30 -67 -69 c-46 -48 -70 -82 -77
-110 -13 -48 -68 -123 -113 -154 -80 -54 -147 -150 -133 -187 4 -12 11 -5 26
27 18 42 77 102 144 148 l32 22 -5 -47 c-2 -26 -8 -51 -13 -56 -15 -16 -10
-24 11 -19 11 3 20 2 20 -2 0 -13 -71 -104 -88 -115 -15 -8 -14 -9 4 -10 28 0
74 37 74 59 0 10 7 32 16 49 8 18 13 36 10 41 -3 5 1 14 9 21 23 19 18 33 -10
26 -30 -8 -32 3 -6 36 11 13 27 48 36 78 35 116 48 142 97 196 28 30 48 58 44
61 -6 6 14 20 69 47 35 17 83 20 105 6z m188 -63 c12 -11 22 -24 22 -29 0 -13
-55 -9 -93 7 -43 18 -102 19 -139 2 -15 -7 -41 -29 -57 -51 -28 -35 -31 -45
-30 -110 0 -39 8 -101 18 -138 16 -64 16 -66 -1 -57 -22 12 -23 3 -3 -44 23
-56 19 -85 -17 -115 -17 -15 -54 -47 -81 -72 l-50 -45 27 50 c15 28 42 69 61
93 45 56 46 95 4 223 -29 89 -30 99 -20 152 7 30 25 74 41 96 37 50 85 65 192
59 68 -4 76 -3 65 10 -10 13 -9 14 13 2 14 -7 35 -22 48 -33z m-678 -222 c-32
-19 -181 -67 -187 -61 -13 13 141 74 187 75 l25 0 -25 -14z m40 -20 c0 -26
-45 -63 -90 -75 -24 -6 -54 -19 -67 -27 -21 -14 -23 -14 -23 0 0 22 119 100
178 116 1 1 2 -6 2 -14z m276 -219 c-3 -17 -17 -44 -31 -61 l-24 -30 20 41
c11 23 23 65 27 95 6 46 7 49 10 20 2 -19 1 -48 -2 -65z m-1451 58 c14 -15 25
-37 25 -49 0 -31 -44 -75 -75 -75 -24 0 -65 31 -65 49 0 38 47 101 75 101 9 0
27 -12 40 -26z m1275 -14 c0 -5 -2 -10 -4 -10 -3 0 -8 5 -11 10 -3 6 -1 10 4
10 6 0 11 -4 11 -10z m-450 -40 c13 -8 13 -10 -2 -10 -9 0 -20 5 -23 10 -8 13
5 13 25 0z m168 -32 c7 -7 12 -16 12 -20 0 -13 -48 -9 -53 5 -3 6 -3 -4 0 -24
5 -33 3 -37 -21 -43 -14 -3 -26 -13 -26 -20 0 -8 -8 -17 -17 -20 -14 -6 -15
-9 -4 -15 17 -11 5 -51 -15 -51 -8 0 -16 0 -19 0 -3 0 -5 3 -4 8 1 4 5 6 10 4
12 -3 12 15 0 20 -5 2 -11 14 -13 28 -2 19 5 28 35 45 20 12 34 24 31 28 -3 3
-17 -1 -30 -10 -13 -8 -24 -13 -24 -9 0 3 -9 -3 -20 -14 -22 -22 -40 -26 -40
-10 0 6 6 10 13 10 9 0 9 2 -1 8 -8 6 -10 19 -6 40 5 25 12 32 29 32 19 0 22
-4 18 -22 -4 -21 -3 -22 10 -5 8 9 24 17 36 17 11 0 21 5 21 11 0 5 5 7 10 4
6 -3 10 -1 10 4 0 15 43 14 58 -1z m792 -69 c0 -24 -37 -85 -46 -76 -2 2 3 18
12 36 11 23 14 46 10 79 -5 47 -5 47 9 17 8 -16 14 -42 15 -56z m-1403 55 c1
-5 -7 -20 -18 -34 -11 -14 -17 -18 -13 -10 4 9 3 12 -2 7 -5 -5 -9 -13 -9 -19
0 -6 -8 -12 -18 -14 -15 -2 -16 0 -6 12 15 18 5 18 -14 0 -12 -12 -18 -12 -38
-2 -14 7 -29 11 -36 9 -6 -2 -13 3 -17 12 -8 21 59 54 75 38 8 -8 20 -8 34 -3
13 5 26 6 29 3 3 -4 6 -1 6 6 0 14 22 10 27 -5z m1460 -70 c-6 -56 -28 -104
-48 -104 -6 0 -2 15 9 33 11 17 23 53 27 80 10 66 19 59 12 -9z m-1411 4 c-3
-18 -12 -36 -19 -40 -9 -6 -9 -8 0 -8 7 0 10 -7 6 -16 -4 -12 -8 -11 -17 8 -6
13 -22 24 -34 26 -29 4 -29 32 1 32 13 0 32 7 43 15 26 20 27 19 20 -17z m921
-48 c-23 -41 -47 -58 -26 -17 11 21 39 57 45 57 1 0 -7 -18 -19 -40z m-805
-149 c-14 -44 -41 -72 -97 -98 -36 -16 -40 -22 -43 -58 -2 -34 4 -52 42 -108
25 -37 56 -82 70 -100 14 -19 26 -46 26 -60 0 -33 -6 -34 -31 -4 l-18 22 -1
-33 c0 -30 -2 -32 -25 -26 -20 5 -24 3 -20 -9 7 -17 -35 -28 -77 -20 -24 5
-28 11 -28 38 0 45 -25 63 -90 67 l-55 3 -3 60 c-2 32 -1 68 2 80 3 11 44 63
92 115 48 52 105 119 128 149 22 30 54 60 71 67 28 12 31 11 49 -17 16 -26 17
-36 8 -68z m2154 -425 c-4 -16 -15 -25 -33 -29 -40 -8 -41 -1 -2 39 34 35 46
32 35 -10z m237 0 c3 -8 -1 -20 -9 -26 -12 -10 -14 -8 -14 14 0 28 14 35 23
12z m-2386 -58 c-3 -8 -6 -5 -6 6 -1 11 2 17 5 13 3 -3 4 -12 1 -19z"/>
<path d="M2630 4610 c0 -19 3 -21 12 -12 9 9 9 15 0 24 -9 9 -12 7 -12 -12z"/>
<path d="M2700 4589 c0 -11 4 -18 10 -14 5 3 7 12 3 20 -7 21 -13 19 -13 -6z"/>
<path d="M2925 4540 c-3 -6 1 -7 9 -4 18 7 21 14 7 14 -6 0 -13 -4 -16 -10z"/>
<path d="M2634 4514 c-18 -15 -18 -15 6 -10 14 3 31 6 38 6 6 0 12 5 12 10 0
15 -34 12 -56 -6z"/>
<path d="M2934 4520 c-18 -7 -40 -38 -32 -45 2 -2 19 10 38 26 34 29 33 35 -6
19z"/>
<path d="M2980 4526 c0 -2 9 -6 20 -9 11 -3 18 -1 14 4 -5 9 -34 13 -34 5z"/>
<path d="M1990 4513 c0 -6 -16 -30 -35 -53 -36 -43 -45 -61 -21 -41 24 20 69
91 62 98 -3 3 -6 2 -6 -4z"/>
<path d="M1720 4385 c-19 -19 -30 -35 -24 -34 9 0 70 69 62 69 -2 0 -19 -16
-38 -35z"/>
<path d="M1611 4355 c-17 -20 -31 -39 -31 -43 0 -7 70 67 70 74 0 10 -10 2
-39 -31z"/>
<path d="M1535 4338 l-40 -43 43 40 c39 36 47 45 39 45 -2 0 -21 -19 -42 -42z"/>
<path d="M3398 4363 c7 -3 16 -2 19 1 4 3 -2 6 -13 5 -11 0 -14 -3 -6 -6z"/>
<path d="M3453 4333 c9 -2 23 -2 30 0 6 3 -1 5 -18 5 -16 0 -22 -2 -12 -5z"/>
<path d="M3238 4293 c7 -3 16 -2 19 1 4 3 -2 6 -13 5 -11 0 -14 -3 -6 -6z"/>
<path d="M1445 4277 c-24 -14 -111 -71 -145 -95 -14 -9 -26 -20 -28 -24 -2 -5
-9 -8 -16 -8 -17 0 -140 -120 -156 -151 -9 -18 -1 -13 31 17 78 73 93 84 108
84 9 0 40 23 69 51 28 28 52 47 52 42 0 -4 4 -3 8 2 4 6 31 30 61 53 51 40 59
54 16 29z"/>
<path d="M1465 4240 c-3 -5 -2 -10 4 -10 5 0 13 5 16 10 3 6 2 10 -4 10 -5 0
-13 -4 -16 -10z"/>
<path d="M3504 4191 c3 -5 15 -7 26 -4 28 7 25 13 -6 13 -14 0 -23 -4 -20 -9z"/>
<path d="M3595 4129 c3 -5 17 -8 30 -7 30 3 24 10 -10 14 -14 1 -23 -1 -20 -7z"/>
<path d="M4201 3390 c14 -31 19 -36 19 -24 0 6 -7 19 -16 30 -14 18 -14 18 -3
-6z"/>
<path d="M1561 1094 c0 -11 3 -14 6 -6 3 7 2 16 -1 19 -3 4 -6 -2 -5 -13z"/>
<path d="M1555 2771 c-22 -10 -52 -30 -67 -44 -23 -22 -25 -27 -13 -37 21 -18
18 -30 -6 -30 -11 0 -33 -13 -47 -30 -15 -16 -34 -30 -44 -30 -26 0 -108 -59
-108 -78 0 -9 -19 -38 -43 -65 -46 -51 -68 -57 -117 -32 -41 21 -52 46 -44
105 7 56 0 61 -42 33 -24 -15 -27 -15 -35 0 -5 9 -23 25 -39 37 l-29 21 6 -69
c9 -105 -8 -124 -82 -96 -15 6 -16 1 -10 -40 l7 -47 -36 22 -36 21 0 -76 0
-76 -24 15 c-23 15 -23 15 -29 -22 -4 -21 -3 -41 1 -45 10 -10 1607 -6 1617 4
16 16 -7 48 -41 54 -19 3 -34 11 -34 17 0 7 -23 33 -52 59 l-52 46 14 56 c10
43 10 62 2 81 -14 31 -56 42 -96 26 -61 -25 -62 -25 -74 16 -14 46 -46 83 -71
83 -10 0 -26 9 -36 20 -28 31 -69 25 -116 -17 -35 -32 -47 -37 -88 -36 -66 1
-87 9 -112 44 -29 41 -15 72 40 90 23 8 42 19 44 24 4 18 -67 16 -108 -4z"/>
<path d="M3440 2648 c-25 -22 -36 -36 -25 -30 19 10 84 72 74 72 -2 -1 -24
-19 -49 -42z"/>
<path d="M3481 2550 c-13 -11 -29 -20 -36 -20 -18 0 -24 -24 -21 -80 5 -81 14
-89 102 -88 96 1 114 15 114 86 0 57 -20 89 -66 108 -44 19 -64 17 -93 -6z"/>
<path d="M3906 2499 c-19 -15 -26 -30 -26 -55 0 -26 -4 -34 -18 -34 -21 0 -52
-30 -52 -49 0 -7 -11 -27 -24 -44 -13 -18 -29 -49 -35 -69 -8 -25 -19 -38 -34
-41 -12 -2 94 -5 235 -6 183 -1 265 3 285 11 l28 12 -42 4 c-42 3 -42 3 -22
23 25 25 26 100 2 121 -28 24 -50 28 -98 19 -25 -5 -42 -5 -39 0 3 5 1 9 -5 9
-5 0 -15 15 -21 34 -27 83 -79 108 -134 65z m293 -202 c-2 -1 -13 -9 -24 -17
-19 -14 -19 -14 -6 3 7 9 18 17 24 17 6 0 8 -1 6 -3z"/>
<path d="M730 2161 c0 -11 82 -20 95 -10 6 4 112 6 235 3 124 -2 248 -1 275 4
32 5 -65 9 -277 10 -194 2 -328 -1 -328 -7z"/>
<path d="M4218 2153 c7 -3 16 -2 19 1 4 3 -2 6 -13 5 -11 0 -14 -3 -6 -6z"/>
<path d="M1398 2133 c7 -3 16 -2 19 1 4 3 -2 6 -13 5 -11 0 -14 -3 -6 -6z"/>
<path d="M682 1913 c-7 -3 -19 -18 -28 -34 -18 -37 -7 -84 31 -135 26 -35 89
-73 100 -62 4 3 -5 30 -19 59 -26 53 -23 79 10 79 8 0 14 9 14 19 0 11 5 23
10 26 6 3 10 16 10 28 0 20 -5 22 -57 23 -32 1 -64 -1 -71 -3z"/>
<path d="M3988 1833 c7 -3 16 -2 19 1 4 3 -2 6 -13 5 -11 0 -14 -3 -6 -6z"/>
<path d="M4048 1833 c6 -2 18 -2 25 0 6 3 1 5 -13 5 -14 0 -19 -2 -12 -5z"/>
<path d="M914 1819 c-4 -7 -3 -9 4 -5 5 3 13 0 15 -6 4 -9 6 -10 6 -1 1 17
-16 25 -25 12z"/>
<path d="M4168 1823 c12 -2 32 -2 45 0 12 2 2 4 -23 4 -25 0 -35 -2 -22 -4z"/>
<path d="M4248 1813 c7 -3 16 -2 19 1 4 3 -2 6 -13 5 -11 0 -14 -3 -6 -6z"/>
<path d="M3773 1793 c15 -2 39 -2 55 0 15 2 2 4 -28 4 -30 0 -43 -2 -27 -4z"/>
<path d="M3930 1779 c-25 -4 -74 -8 -110 -9 -36 -1 -76 -6 -90 -10 -15 -5 3
-6 43 -2 37 2 67 2 67 -1 0 -10 -169 -28 -300 -31 -101 -3 -150 -8 -197 -23
l-61 -20 -11 23 c-15 33 -31 30 -31 -5 0 -25 -11 -38 -72 -85 -83 -62 -119
-98 -141 -141 l-16 -30 -11 25 c-10 23 -10 22 -6 -12 3 -24 0 -41 -10 -49 -7
-6 -12 -15 -9 -19 6 -9 -27 -214 -45 -281 -19 -71 -51 -139 -63 -132 -7 4 -8
0 -3 -13 4 -10 4 -16 1 -12 -3 3 -21 -8 -38 -24 -18 -16 -70 -53 -115 -81 -89
-55 -154 -113 -178 -159 -8 -16 -17 -52 -20 -81 l-5 -52 24 68 c29 82 74 132
161 178 33 18 83 53 110 78 l49 46 -26 -45 c-27 -46 -118 -144 -150 -162 -25
-13 -57 -85 -57 -128 0 -48 28 -100 69 -127 31 -21 45 -23 170 -23 107 0 141
3 159 15 24 18 93 147 91 173 0 9 -5 2 -10 -15 -13 -43 -23 -42 -38 6 -9 30
-19 42 -43 50 -41 15 -60 14 -84 -4 -18 -14 -18 -14 3 -8 15 3 30 -3 49 -22
22 -22 26 -33 21 -67 -7 -56 -31 -78 -82 -78 -57 0 -87 32 -87 93 -1 58 17 86
130 202 82 83 93 91 105 76 28 -31 97 -173 97 -197 0 -36 -25 -78 -62 -108
-40 -31 -19 -35 24 -5 33 24 58 73 58 114 0 14 -18 61 -39 103 -50 99 -60 146
-34 160 52 28 160 53 267 63 116 10 223 28 258 43 19 8 11 -24 -57 -234 -44
-136 -50 -170 -35 -217 18 -57 32 -63 138 -63 77 0 93 3 89 14 -16 41 -29 143
-24 190 3 29 24 102 48 162 23 60 48 133 54 163 l11 55 39 -55 c73 -100 88
-124 117 -184 33 -71 37 -142 10 -195 -12 -24 -34 -43 -77 -65 -51 -26 -62
-36 -73 -70 -20 -61 -15 -65 93 -65 93 0 98 1 125 29 43 43 64 126 58 235 -4
71 -16 129 -57 265 -29 95 -50 175 -48 178 8 7 189 -83 242 -121 l50 -36 3 35
c2 19 -6 54 -17 80 -11 25 -18 45 -16 45 2 0 25 -28 50 -61 l47 -61 -11 -63
c-24 -136 -11 -215 50 -304 58 -84 138 -123 205 -101 19 7 41 9 49 7 25 -10
34 47 11 78 -12 17 -14 17 -37 2 -62 -44 -154 10 -174 101 -7 36 3 152 13 151
4 0 21 -19 37 -42 39 -53 101 -75 146 -52 96 50 83 247 -19 286 -16 6 -34 4
-58 -6 -34 -14 -35 -16 -32 -62 l3 -48 38 3 c32 2 39 -1 47 -22 5 -15 5 -38
-1 -60 -12 -45 -44 -48 -81 -8 -34 36 -43 70 -68 237 -31 219 -55 308 -113
413 -65 120 -138 200 -192 212 -48 11 -232 11 -295 -1z m35 -20 c-22 -4 -56
-7 -75 -7 -32 1 -31 2 10 8 25 4 59 7 75 7 25 1 23 -1 -10 -8z m252 -35 c23
-14 41 -59 29 -71 -3 -4 8 -21 25 -39 l31 -32 -54 21 -55 22 5 41 c4 36 1 44
-24 64 -28 22 -29 22 -4 15 14 -4 35 -13 47 -21z m-372 -45 c54 -37 123 -69
202 -94 85 -27 104 -22 85 19 -11 24 -10 24 18 14 28 -9 29 -11 14 -34 -16
-23 -15 -48 1 -88 7 -17 6 -17 -21 -3 -16 8 -39 18 -51 21 l-23 7 -1 -143 c-1
-121 -3 -133 -10 -81 -9 74 -23 103 -49 103 -20 0 -34 -32 -45 -105 -4 -22 -9
-49 -12 -59 -8 -29 -20 -2 -32 74 -6 35 -15 68 -21 74 -18 18 -52 -27 -57 -78
-3 -26 -9 -49 -14 -52 -4 -2 -15 17 -23 43 -65 201 -73 218 -99 221 -49 6
-140 -29 -179 -68 -21 -21 -38 -45 -38 -54 0 -18 0 -18 58 -7 38 8 41 7 30 -8
-7 -9 -28 -30 -47 -46 -18 -17 -42 -51 -52 -75 l-18 -45 -1 55 0 55 -19 -24
c-18 -23 -18 -23 -24 -2 -6 25 -42 28 -51 4 -4 -9 -9 -44 -13 -77 -6 -61 -23
-109 -44 -121 -7 -5 -9 25 -8 99 4 130 -8 151 -45 80 -30 -59 -33 -39 -6 42
26 79 25 91 -11 109 -52 27 -23 49 46 34 18 -4 20 2 23 49 2 28 7 52 12 52 5
0 19 -18 30 -40 19 -38 65 -79 76 -68 2 3 0 25 -5 49 -5 24 -9 44 -8 45 1 0
31 20 65 43 68 46 73 46 154 15 l47 -18 63 26 c70 29 84 26 126 -24 13 -16 37
-35 53 -43 32 -17 119 -20 119 -5 0 6 -18 10 -39 10 -61 0 -90 16 -151 81 -57
60 -59 75 -5 38z m519 -170 c34 -61 44 -145 26 -218 -14 -60 -4 -81 39 -81
l26 -1 -25 -14 c-36 -20 -45 -19 -84 16 -40 35 -116 178 -116 218 0 40 33 111
51 111 21 0 41 24 31 36 -4 4 0 3 9 -4 9 -6 28 -35 43 -63z m-980 -402 c-9
-28 -19 -46 -22 -39 -2 7 4 38 14 70 10 31 20 49 22 39 2 -9 -4 -41 -14 -70z
m412 51 l29 -33 -32 29 c-31 28 -38 36 -30 36 2 0 16 -15 33 -32z m-646 -162
c0 -2 -8 -10 -17 -17 -16 -13 -17 -12 -4 4 13 16 21 21 21 13z"/>
<path d="M1220 1610 c14 -10 36 -25 50 -32 14 -7 45 -26 70 -42 29 -19 40 -23
30 -11 -19 24 -144 105 -162 105 -7 0 -2 -9 12 -20z"/>
<path d="M2538 1558 c9 -9 15 -9 24 0 9 9 7 12 -12 12 -19 0 -21 -3 -12 -12z"/>
<path d="M2300 1536 c7 -7 14 -6 21 1 9 9 7 12 -9 10 -14 -1 -18 -5 -12 -11z"/>
<path d="M889 1372 l-22 -19 31 -11 c20 -7 50 -8 82 -3 67 11 75 21 16 21 -32
0 -48 5 -52 15 -8 20 -27 19 -55 -3z"/>
<path d="M813 1355 c-14 -7 -19 -16 -14 -24 7 -10 14 -10 35 4 14 10 26 19 26
20 0 10 -28 10 -47 0z"/>
<path d="M865 1310 c-3 -5 -2 -10 3 -10 5 0 19 -8 30 -19 14 -11 31 -16 47
-13 29 5 34 22 7 22 -10 0 -27 7 -38 15 -22 17 -40 19 -49 5z"/>
<path d="M2408 1275 c5 -11 22 -31 37 -45 23 -21 26 -21 17 -5 -5 11 -22 31
-37 45 -23 21 -26 21 -17 5z"/>
<path d="M2930 1281 c0 -7 -3 -10 -7 -8 -5 3 -6 -18 -4 -46 l5 -52 7 55 c4 30
6 57 3 59 -2 2 -4 -1 -4 -8z"/>
<path d="M2912 1150 c0 -14 2 -19 5 -12 2 6 2 18 0 25 -3 6 -5 1 -5 -13z"/>
<path d="M686 1104 c-4 -10 -1 -14 6 -12 15 5 23 28 10 28 -5 0 -13 -7 -16
-16z"/>
<path d="M4360 660 c-12 -8 -9 -10 11 -10 33 0 55 -25 64 -70 5 -30 2 -39 -19
-59 -20 -19 -32 -23 -61 -18 -38 6 -47 -6 -16 -23 33 -17 78 -11 108 14 24 21
28 32 28 76 0 44 -4 55 -28 76 -29 25 -62 30 -87 14z"/>
<path d="M2893 543 c9 -9 20 -13 24 -9 4 4 1 11 -7 16 -25 16 -35 11 -17 -7z"/>
<path d="M4327 553 c-12 -12 -7 -22 8 -17 8 4 15 10 15 15 0 11 -14 12 -23 2z"/>
</g>
</svg>
